<svg width="18" height="18" viewBox="0 0 18 18" fill="none" xmlns="http://www.w3.org/2000/svg">
<g id="Iconly/Bold/Image">
<g id="Image">
<path id="Image_2" fill-rule="evenodd" clip-rule="evenodd" d="M5.74964 16.5H12.2496C14.7923 16.5 16.5 14.7164 16.5 12.0625V5.93754C16.5 3.28358 14.7923 1.5 12.2504 1.5H5.74964C3.20767 1.5 1.5 3.28358 1.5 5.93754V12.0625C1.5 14.7164 3.20767 16.5 5.74964 16.5ZM6.37414 8.25C5.34016 8.25 4.5 7.4087 4.5 6.375C4.5 5.3413 5.34016 4.5 6.37414 4.5C7.40737 4.5 8.24829 5.3413 8.24829 6.375C8.24829 7.4087 7.40737 8.25 6.37414 8.25ZM14.8656 11.2005C15.1167 11.8444 14.9862 12.6184 14.7178 13.2562C14.3995 14.0147 13.7901 14.589 13.0224 14.8398C12.6815 14.9512 12.324 15 11.9673 15H5.64645C5.01746 15 4.46088 14.8491 4.0046 14.5681C3.71876 14.3916 3.66823 13.9845 3.88016 13.7206C4.23462 13.2794 4.58456 12.8367 4.93752 12.3901C5.61025 11.5356 6.06351 11.2879 6.56731 11.5054C6.77169 11.5952 6.97683 11.7299 7.188 11.8723C7.75062 12.2546 8.53271 12.7802 9.56292 12.2097C10.2679 11.8149 10.6768 11.1376 11.0329 10.5478L11.0389 10.5379C11.0641 10.4965 11.0891 10.4552 11.114 10.4139L11.114 10.4139C11.2337 10.2159 11.3518 10.0205 11.4853 9.84055C11.6528 9.61532 12.2735 8.91099 13.0774 9.41254C13.5895 9.72833 14.0201 10.1556 14.4809 10.613C14.6567 10.7879 14.7819 10.9868 14.8656 11.2005Z" fill="#525252"/>
</g>
</g>
</svg>
