<svg xmlns="http://www.w3.org/2000/svg" viewBox="0 0 50 50"><script xmlns="" id="__gaOptOutExtension"/><defs><style>.a,.b,.c{fill:#1db51d;}.a{opacity:0.2;}.a,.c{isolation:isolate;}</style></defs><title>positive</title><circle class="a" cx="25" cy="25" r="25"/><path class="b" d="M25,14A11,11,0,1,1,14,25,11,11,0,0,1,25,14m0-2A13,13,0,1,0,38,25,13,13,0,0,0,25,12Z"/><circle class="c" cx="20.95" cy="22.13" r="1.5"/><circle class="c" cx="28.5" cy="22.13" r="1.5"/><path class="b" d="M25,32.35a7.09,7.09,0,0,1-6.82-4.54,1,1,0,0,1,1.9-.63A5.07,5.07,0,0,0,25,30.35a5.94,5.94,0,0,0,5.34-3.27,1,1,0,0,1,1.82.82A7.94,7.94,0,0,1,25,32.35Z"/></svg>